<?xml version="1.0" standalone="no"?>
<!DOCTYPE svg PUBLIC "-//W3C//DTD SVG 20010904//EN"
 "http://www.w3.org/TR/2001/REC-SVG-20010904/DTD/svg10.dtd">
<svg version="1.0" xmlns="http://www.w3.org/2000/svg"
 width="96.000000pt" height="96.000000pt" viewBox="0 0 96.000000 96.000000"
 preserveAspectRatio="xMidYMid meet">

<g transform="translate(0.000000,96.000000) scale(0.100000,-0.100000)"
fill="#000000" stroke="none">
<path d="M262 831 c-8 -4 -33 -62 -56 -127 l-43 -119 29 -3 c17 -2 35 -1 41 1
7 2 25 43 42 91 28 80 32 86 57 86 26 0 28 3 28 40 l0 40 -42 0 c-24 0 -49 -4
-56 -9z"/>
<path d="M600 800 c0 -37 2 -40 28 -40 25 0 29 -6 57 -86 17 -48 35 -89 42
-91 6 -2 24 -3 41 -1 l29 3 -43 119 c-23 65 -48 123 -56 127 -7 5 -32 9 -55 9
l-43 0 0 -40z"/>
<path d="M300 280 c0 -113 1 -120 20 -120 19 0 20 7 20 120 0 113 -1 120 -20
120 -19 0 -20 -7 -20 -120z"/>
<path d="M380 280 c0 -113 1 -120 20 -120 19 0 20 7 20 120 0 113 -1 120 -20
120 -19 0 -20 -7 -20 -120z"/>
<path d="M460 280 c0 -113 1 -120 20 -120 19 0 20 7 20 120 0 113 -1 120 -20
120 -19 0 -20 -7 -20 -120z"/>
<path d="M540 280 c0 -113 1 -120 20 -120 19 0 20 7 20 120 0 113 -1 120 -20
120 -19 0 -20 -7 -20 -120z"/>
<path d="M620 280 c0 -113 1 -120 20 -120 19 0 20 7 20 120 0 113 -1 120 -20
120 -19 0 -20 -7 -20 -120z"/>
</g>
</svg>
